<svg width="28" height="32" viewBox="0 0 28 32" fill="none" xmlns="http://www.w3.org/2000/svg">
<path fill-rule="evenodd" clip-rule="evenodd" d="M4 0C1.79086 0 0 1.79086 0 4V25C0 27.2091 1.79086 29 4 29H21L28 32V4C28 1.79086 26.2091 0 24 0H4ZM4.16793 20.4453C4.47346 19.987 5.09183 19.8622 5.55099 20.1655L5.56514 20.1744C5.58011 20.1838 5.60656 20.2 5.64448 20.2221C5.72033 20.2664 5.84207 20.3342 6.0097 20.4181C6.34491 20.5857 6.86372 20.8171 7.56621 21.0513C8.96979 21.5192 11.1132 22 14 22C16.8868 22 19.0302 21.5192 20.4338 21.0513C21.1363 20.8171 21.6551 20.5857 21.9903 20.4181C22.1579 20.3342 22.2796 20.2664 22.3555 20.2221C22.3934 20.2 22.4199 20.1838 22.4348 20.1744L22.4466 20.167C22.9061 19.8613 23.5258 19.986 23.832 20.4453C24.1384 20.9048 24.0142 21.5257 23.5547 21.832L23 21C23.5547 21.832 23.5547 21.832 23.5547 21.832L23.553 21.8331L23.5511 21.8344L23.5464 21.8375L23.5337 21.8458C23.5237 21.8522 23.5108 21.8605 23.4948 21.8704C23.4629 21.8904 23.4191 21.9171 23.3632 21.9497C23.2516 22.0148 23.0921 22.1032 22.8847 22.2069C22.4699 22.4143 21.8637 22.6828 21.0662 22.9487C19.4698 23.4808 17.1132 24 14 24C10.8868 24 8.53017 23.4808 6.93376 22.9487C6.13625 22.6828 5.53006 22.4143 5.11527 22.2069C4.9079 22.1032 4.74839 22.0148 4.63674 21.9497C4.58091 21.9171 4.53705 21.8904 4.50514 21.8704C4.48919 21.8605 4.47622 21.8522 4.46625 21.8458L4.45353 21.8375L4.44884 21.8344L4.44692 21.8331L4.44607 21.8326C4.44607 21.8326 4.44528 21.832 4.99998 21L4.44607 21.8326C3.98654 21.5262 3.86158 20.9048 4.16793 20.4453Z" fill="white"/>
</svg>
